<svg viewBox="0 0 300 245" version="1.1" xmlns="http://www.w3.org/2000/svg" xmlns:xlink="http://www.w3.org/1999/xlink">
	<desc>Created by PabloAsekas</desc>
	<defs></defs>
	<g id="Twitter_bird_logo_2012" stroke="none" stroke-width="1" fill="none" fill-rule="evenodd">
		<g id="svg3626" fill="#ffffff">
			<g id="layer1" transform="translate(0.820540, 0.142230)">
				<path d="M93.89823,243.04479 C206.35861,243.04479 267.8545,149.87714 267.8545,69.08854 C267.8545,66.44226 267.8006,63.80792 267.6819,61.18549 C279.61989,52.55533 289.99636,41.7855 298.17952,29.52565 C287.22493,34.39502 275.43594,37.67306 263.06881,39.15116 C275.69222,31.58187 285.38327,19.60812 289.95464,5.33377 C278.1418,12.33684 265.05947,17.42674 251.13081,20.17432 C239.97358,8.28996 224.09002,0.85777 206.50189,0.85777 C172.73815,0.85777 145.35763,28.23829 145.35763,61.9901 C145.35763,66.78794 145.89403,71.45468 146.94301,75.93067 C96.12755,73.37381 51.06948,49.04485 20.91755,12.05076 C15.66673,21.08621 12.63903,31.58187 12.63903,42.78082 C12.63903,63.99268 23.43269,82.71919 39.84669,93.67378 C29.81592,93.36386 20.39306,90.6103 12.15625,86.02702 C12.14725,86.28354 12.14725,86.53363 12.14725,86.80779 C12.14725,116.41736 33.22203,141.13969 61.19855,146.74214 C56.06098,148.14276 50.6552,148.89372 45.07659,148.89372 C41.14295,148.89372 37.31063,148.50656 33.5856,147.79112 C41.36943,172.08432 63.94017,189.76185 90.70085,190.25655 C69.77507,206.65862 43.41373,216.42717 14.76373,216.42717 C9.83475,216.42717 4.96539,216.14681 0.17946,215.58083 C27.23814,232.92462 59.36882,243.04479 93.90139,243.04479" id="path3611"></path>
			</g>
		</g>
	</g>
</svg>