<svg viewBox="9219 0 45 45" version="1.1" xmlns="http://www.w3.org/2000/svg" xmlns:xlink="http://www.w3.org/1999/xlink">
	<desc>Created by PabloAsekas</desc>
	<defs></defs>
	<g id="Enlace" stroke="none" stroke-width="1" fill="none" fill-rule="evenodd" transform="translate(9219.000000, 0.000000)">
		<g id="link-symbol" transform="translate(22.500000, 22.500000) scale(-1, 1) translate(-22.500000, -22.500000) " fill="#C14C4C">
			<g id="Capa_1">
				<path d="M42.6787339,27.4600429 L36.9437446,21.725633 C35.4002253,20.1820172 33.525676,19.4097747 31.3199034,19.4097747 C29.0773391,19.4097747 27.1662876,20.2185193 25.5853004,21.8360086 L23.1590665,19.4097747 C24.7766524,17.8291738 25.5853004,15.9086588 25.5853004,13.6475536 C25.5853004,11.4418777 24.822618,9.57659871 23.296867,8.05075107 L17.6173069,2.34395923 C16.0917489,0.781706009 14.2170064,0.000289699571 11.9930794,0.000289699571 C9.78740343,0.000289699571 7.92183476,0.763358369 6.39627682,2.28891631 L2.34337983,6.31409871 C0.781030043,7.84004292 0,9.70532189 0,11.9108047 C0,14.1164807 0.772145923,15.9915129 2.31585837,17.5353219 L8.05046137,23.2697318 C9.59456009,24.8136373 11.4693026,25.5855901 13.6749785,25.5855901 C15.9171567,25.5855901 17.8287876,24.7769421 19.4093884,23.1592597 L21.8356223,25.5855901 C20.218133,27.1664807 19.4093884,29.0868991 19.4093884,31.3479077 C19.4093884,33.5537768 20.1720708,35.418573 21.6977253,36.9447103 L27.3777682,42.6512124 C28.9036159,44.2133691 30.7776824,44.994882 33.0016094,44.994882 C35.2075751,44.994882 37.0722747,44.2322961 38.598412,42.7064485 L42.6515987,38.6813627 C44.2137554,37.1552253 44.9953648,35.2901395 44.9953648,33.0845601 C44.994882,30.8791738 44.2229292,29.0046245 42.6787339,27.4600429 Z M19.4097747,15.6609657 C19.3546352,15.6058262 19.1843884,15.4313305 18.8999034,15.1371888 C18.6152253,14.8430472 18.4175536,14.6454721 18.3073712,14.5442704 C18.1969957,14.4431652 18.0223069,14.3053648 17.7834013,14.1303863 C17.5441094,13.9556974 17.3100322,13.8364378 17.080397,13.7720279 C16.8505687,13.7077146 16.5977575,13.6756545 16.3219635,13.6756545 C15.5869957,13.6756545 14.9619206,13.9331009 14.447221,14.4475107 C13.9325215,14.9619206 13.6754614,15.5868991 13.6754614,16.3222532 C13.6754614,16.5977575 13.7075215,16.8505687 13.7718348,17.080397 C13.8361481,17.3104185 13.9556009,17.5446888 14.1301931,17.7834979 C14.304882,18.0224034 14.442779,18.1970923 14.5437876,18.3074678 C14.644603,18.4176502 14.8421781,18.6153219 15.1363197,18.9002897 C15.4304614,19.1851609 15.6049571,19.3550215 15.6600966,19.4102575 C15.1086052,19.9798069 14.4469313,20.2646781 13.6751717,20.2646781 C12.9215665,20.2646781 12.2964914,20.0166953 11.8004292,19.520633 L6.06534335,13.7859335 C5.55093348,13.2712339 5.29358369,12.6462554 5.29358369,11.9109013 C5.29358369,11.1942811 5.55064378,10.5786695 6.06534335,10.06397 L10.1183369,6.03840129 C10.6516738,5.54204936 11.2762661,5.29435622 11.9933691,5.29435622 C12.7283369,5.29435622 13.3533155,5.55151288 13.8681116,6.06621245 L19.5474785,11.7730043 C20.0621781,12.2877039 20.3192382,12.9125858 20.3192382,13.6477468 C20.3193348,14.4194099 20.0161159,15.0904506 19.4097747,15.6609657 Z M38.9305043,34.9312017 L34.8773176,38.9566738 C34.3624249,39.4341953 33.7378326,39.6734871 33.0021888,39.6734871 C32.2481009,39.6734871 31.6241845,39.4256974 31.1278326,38.9292489 L25.4484657,33.2220708 C24.9336695,32.7071781 24.6768991,32.0825858 24.6768991,31.3477146 C24.6768991,30.5757618 24.9799249,29.9049142 25.5866524,29.3351717 C25.6421781,29.3899249 25.8120386,29.5650966 26.0969099,29.8585622 C26.3817811,30.1527039 26.5793562,30.3503755 26.6898283,30.4514807 C26.8002039,30.5529721 26.974603,30.6907725 27.2132189,30.8655579 C27.4525107,31.0404399 27.6863948,31.1599893 27.9164163,31.2241094 C28.1464378,31.2885193 28.3989592,31.3205794 28.6745601,31.3205794 C29.4102039,31.3205794 30.0347961,31.0632296 30.5496888,30.5486266 C31.063809,30.0341202 31.3216416,29.4091416 31.3216416,28.6742704 C31.3216416,28.3986695 31.2889056,28.1458584 31.2250751,27.9161266 C31.1603755,27.6861052 31.0414056,27.4517382 30.8658476,27.2129292 C30.6909657,26.9743133 30.5539378,26.7992382 30.4524464,26.6887661 C30.3513412,26.5790665 30.1536695,26.3813948 29.8596245,26.0958476 C29.5654828,25.811073 29.3909871,25.6411159 29.3354614,25.5863627 C29.8873391,24.9980794 30.5489163,24.7039378 31.3202897,24.7039378 C32.0558369,24.7039378 32.6804292,24.9610944 33.1946459,25.4758906 L38.9295386,31.2102039 C39.4444313,31.7250966 39.701588,32.3503648 39.701588,33.0852361 C39.701588,33.8013734 39.4444313,34.4177575 38.9305043,34.9312017 Z" id="Shape"></path>
			</g>
		</g>
	</g>
</svg>