<svg width="20px" height="20px" viewBox="7798 0 20 20" version="1.1" xmlns="http://www.w3.org/2000/svg" xmlns:xlink="http://www.w3.org/1999/xlink">
    <!-- Generator: Sketch 40.3 (33839) - http://www.bohemiancoding.com/sketch -->
    <desc>Created with Sketch.</desc>
    <defs></defs>
    <g id="Lupa-blanco" stroke="none" stroke-width="1" fill="none" fill-rule="evenodd" transform="translate(7798.000000, 0.000000)">
        <g id="searching-magnifying-glass" fill="#FFFFFF">
            <g id="Capa_1" transform="translate(10.000000, 10.000000) scale(-1, 1) translate(-10.000000, -10.000000) ">
                <g id="search">
                    <path d="M13.3489933,12.5503356 L13.0067562,12.2080537 C14.1476957,10.9530201 14.8322595,9.24161074 14.8322595,7.41610738 C14.8322148,3.30872483 11.5234899,0 7.41610738,0 C3.30872483,0 0,3.30872483 0,7.41610738 C0,11.5234899 3.30872483,14.8322148 7.41610738,14.8322148 C9.24161074,14.8322148 10.9530201,14.147651 12.2080537,13.0067114 L12.5503356,13.3489485 L12.5503356,14.2617002 L18.2550336,19.966443 L19.966443,18.2550336 L14.261745,12.5503356 L13.3489933,12.5503356 Z M7.41610738,12.5503356 C4.56375839,12.5503356 2.28187919,10.2684564 2.28187919,7.41610738 C2.28187919,4.56375839 4.56375839,2.28187919 7.41610738,2.28187919 C10.2684564,2.28187919 12.5503356,4.56375839 12.5503356,7.41610738 C12.5503356,10.2684564 10.2684564,12.5503356 7.41610738,12.5503356 L7.41610738,12.5503356 Z" id="Shape"></path>
                </g>
            </g>
        </g>
    </g>
</svg>