<?xml version="1.0" encoding="utf-8"?>
<!-- Generator: Adobe Illustrator 16.0.0, SVG Export Plug-In . SVG Version: 6.00 Build 0)  -->
<!DOCTYPE svg PUBLIC "-//W3C//DTD SVG 1.1//EN" "http://www.w3.org/Graphics/SVG/1.1/DTD/svg11.dtd">
<svg version="1.1" id="Capa_1" xmlns="http://www.w3.org/2000/svg" xmlns:xlink="http://www.w3.org/1999/xlink" x="0px" y="0px"
	 width="132px" height="30px" viewBox="0 0 132 30" enable-background="new 0 0 132 30" xml:space="preserve">
<g>
	<path fill="#FFFFFF" d="M26.814,27.664h-3.583l-0.544-10.303c-0.16-3.328-0.352-7.104-0.32-10.144h-0.096
		c-0.736,2.879-1.696,6.015-2.72,9.119L15.903,27.44H13.12l-3.36-10.88c-0.992-3.199-1.856-6.399-2.464-9.343H7.2
		c-0.064,3.04-0.256,6.911-0.448,10.335L6.208,27.664H2.752l1.664-24.51h4.608l3.456,10.783c0.896,3.008,1.632,5.728,2.24,8.416
		h0.096c0.608-2.624,1.376-5.407,2.336-8.447l3.552-10.751h4.64L26.814,27.664z"/>
	<path fill="#FFFFFF" d="M43.423,23.473c0,1.504,0.032,3.039,0.256,4.191h-3.36l-0.256-2.048h-0.096
		c-0.992,1.376-2.72,2.399-4.928,2.399c-3.296,0-5.184-2.432-5.184-5.151c0-4.384,3.808-6.56,9.855-6.56
		c0-1.312,0-3.936-3.552-3.936c-1.568,0-3.168,0.48-4.288,1.216l-0.768-2.464c1.248-0.8,3.328-1.472,5.695-1.472
		c5.184,0,6.624,3.424,6.624,7.167V23.473z M39.807,18.801c-2.912,0-6.271,0.544-6.271,3.68c0,1.952,1.216,2.815,2.592,2.815
		c2.016,0,3.68-1.535,3.68-3.583V18.801z"/>
	<path fill="#FFFFFF" d="M59.967,27.12c-0.832,0.384-2.496,0.896-4.543,0.896c-5.087,0-8.416-3.487-8.416-8.991
		c0-5.343,3.456-9.375,9.12-9.375c1.696,0,3.167,0.416,3.936,0.8l-0.736,2.848c-0.64-0.32-1.664-0.704-3.168-0.704
		c-3.456,0-5.375,2.816-5.375,6.271c0,3.872,2.272,6.176,5.344,6.176c1.472,0,2.496-0.352,3.328-0.704L59.967,27.12z"/>
	<path fill="#FFFFFF" d="M74.271,5.81c-0.672-0.48-2.208-1.152-4.256-1.152c-3.711,0-5.023,2.336-5.023,4.224
		c0,2.624,1.536,3.936,4.896,5.344c3.937,1.632,6.016,3.552,6.016,7.135c0,3.68-2.688,6.655-7.743,6.655
		c-2.112,0-4.512-0.672-5.728-1.567l0.672-1.664c1.344,0.928,3.232,1.568,5.216,1.568c3.487,0,5.567-1.952,5.567-4.8
		c0-2.656-1.344-4.256-4.703-5.6c-3.744-1.344-6.176-3.424-6.176-6.784c0-3.584,2.943-6.176,7.135-6.176
		c2.24,0,3.968,0.576,4.8,1.12L74.271,5.81z"/>
	<path fill="#FFFFFF" d="M80.511,9.394c0-2.56,0.512-4.736,1.888-6.176c1.088-1.088,2.528-1.504,3.904-1.504
		c1.088,0,1.983,0.288,2.527,0.576l-0.512,1.536c-0.479-0.224-1.088-0.48-2.112-0.48c-3.039,0-3.711,2.848-3.711,6.016v0.992h4.479
		v1.568h-4.479v15.743h-1.984V11.921h-2.464v-1.568h2.464V9.394z"/>
	<path fill="#FFFFFF" d="M101.886,26.928c-0.768,0.416-2.527,1.088-5.375,1.088c-4.992,0-8.032-3.615-8.032-8.703
		c0-5.664,3.2-9.375,7.68-9.375c5.504,0,6.655,5.184,6.688,7.871c0,0.48-0.032,0.769-0.063,1.152H90.431
		c0,5.375,2.944,7.455,6.336,7.455c2.367,0,3.647-0.479,4.64-0.96L101.886,26.928z M100.83,17.425
		c0.032-2.464-0.992-5.888-4.863-5.888c-3.584,0-5.152,3.296-5.44,5.888H100.83z"/>
	<path fill="#FFFFFF" d="M114.43,11.921c-0.256-0.064-0.512-0.064-0.863-0.064c-2.88,0-4.544,3.104-4.544,6.239v9.567h-1.983V15.473
		c0-1.728-0.032-3.424-0.128-5.152h1.791l0.064,3.456h0.128c0.736-2.144,2.527-3.839,4.8-3.839c0.256,0,0.479,0.064,0.735,0.096
		V11.921z"/>
	<path fill="#FFFFFF" d="M128.573,23.536c0,1.376,0.032,2.848,0.224,4.128h-1.823l-0.225-2.399h-0.096
		c-0.832,1.376-2.72,2.783-5.344,2.783c-3.392,0-5.056-2.432-5.056-4.8c0-4.063,3.552-6.399,10.335-6.335
		c0-1.696,0-5.376-4.255-5.376c-1.473,0-3.04,0.416-4.256,1.28l-0.576-1.408c1.504-0.992,3.392-1.472,5.088-1.472
		c4.896,0,5.983,3.583,5.983,6.848V23.536z M126.621,18.48c-3.615,0-8.287,0.448-8.287,4.479c0,2.4,1.567,3.488,3.296,3.488
		c3.712,0,4.991-3.104,4.991-4.384V18.48z"/>
</g>
</svg>
