<?xml version="1.0" encoding="UTF-8"?>
<svg width="359px" height="90px" viewBox="0 0 359 90" version="1.1" xmlns="http://www.w3.org/2000/svg" xmlns:xlink="http://www.w3.org/1999/xlink">
    <!-- Generator: Sketch 43.2 (39069) - http://www.bohemiancoding.com/sketch -->
    <title>Group 2</title>
    <desc>Created with Sketch.</desc>
    <defs></defs>
    <g id="Page-1" stroke="none" stroke-width="1" fill="none" fill-rule="evenodd">
        <g id="Group-2" transform="translate(1.000000, 0.000000)">
            <g id="macsfera-logo" transform="translate(5.000000, 0.000000)" fill-rule="nonzero" fill="#545454">
                <g id="Group" transform="translate(64.000000, 25.000000)">
                    <path d="M55.524,59.42 L47.348,59.42 L46.107,35.914 C45.742,28.322 45.304,19.709 45.378,12.774 L45.159,12.774 C43.48,19.343 41.29,26.498 38.954,33.578 L30.632,58.909 L24.281,58.909 L16.616,34.09 C14.353,26.79 12.383,19.49 10.995,12.775 L10.776,12.775 C10.63,19.71 10.192,28.543 9.755,36.353 L8.514,59.42 L0.63,59.42 L4.426,3.503 L14.938,3.503 L22.822,28.103 C24.866,34.965 26.545,41.169 27.932,47.302 L28.151,47.302 C29.538,41.316 31.29,34.965 33.48,28.031 L41.583,3.503 L52.167,3.503 L55.524,59.42 L55.524,59.42 Z" id="Shape"></path>
                    <path d="M93.411,49.857 C93.411,53.288 93.484,56.792 93.995,59.419 L86.33,59.419 L85.746,54.747 L85.527,54.747 C83.264,57.886 79.322,60.222 74.285,60.222 C66.766,60.222 62.459,54.674 62.459,48.47 C62.459,38.469 71.146,33.505 84.942,33.505 C84.942,30.512 84.942,24.526 76.839,24.526 C73.262,24.526 69.612,25.621 67.057,27.299 L65.305,21.678 C68.152,19.853 72.897,18.321 78.299,18.321 C90.124,18.321 93.409,26.132 93.409,34.673 L93.409,49.857 L93.411,49.857 Z M85.162,39.199 C78.519,39.199 70.854,40.44 70.854,47.594 C70.854,52.047 73.628,54.018 76.767,54.018 C81.366,54.018 85.162,50.514 85.162,45.842 L85.162,39.199 L85.162,39.199 Z" id="Shape"></path>
                    <path d="M131.152,58.179 C129.254,59.055 125.458,60.223 120.786,60.223 C109.18,60.223 101.588,52.266 101.588,39.711 C101.588,27.52 109.472,18.322 122.393,18.322 C126.262,18.322 129.62,19.271 131.372,20.146 L129.693,26.643 C128.233,25.914 125.897,25.038 122.465,25.038 C114.582,25.038 110.202,31.462 110.202,39.346 C110.202,48.178 115.385,53.434 122.393,53.434 C125.75,53.434 128.086,52.631 129.985,51.829 L131.152,58.179 L131.152,58.179 Z" id="Shape"></path>
                    <path d="M163.783,9.562 C162.25,8.467 158.746,6.934 154.074,6.934 C145.606,6.934 142.613,12.263 142.613,16.57 C142.613,22.555 146.117,25.549 153.782,28.76 C162.761,32.483 167.506,36.863 167.506,45.038 C167.506,53.433 161.374,60.222 149.84,60.222 C145.023,60.222 139.548,58.689 136.774,56.646 L138.307,52.849 C141.373,54.966 145.68,56.426 150.205,56.426 C158.162,56.426 162.907,51.974 162.907,45.477 C162.907,39.417 159.841,35.768 152.176,32.703 C143.636,29.637 138.088,24.891 138.088,17.227 C138.088,9.051 144.804,3.139 154.366,3.139 C159.476,3.139 163.418,4.452 165.316,5.694 L163.783,9.562 L163.783,9.562 Z" id="Shape"></path>
                    <path d="M178.019,17.738 C178.019,11.898 179.187,6.934 182.326,3.649 C184.807,1.167 188.093,0.218 191.231,0.218 C193.713,0.218 195.757,0.875 196.999,1.531 L195.831,5.035 C194.735,4.524 193.349,3.94 191.013,3.94 C184.078,3.94 182.545,10.437 182.545,17.664 L182.545,19.927 L192.765,19.927 L192.765,23.504 L182.545,23.504 L182.545,59.42 L178.02,59.42 L178.02,23.505 L172.399,23.505 L172.399,19.928 L178.02,19.928 L178.02,17.738 L178.019,17.738 Z" id="Shape"></path>
                    <path d="M226.781,57.741 C225.029,58.689 221.014,60.222 214.517,60.222 C203.129,60.222 196.195,51.974 196.195,40.367 C196.195,27.447 203.495,18.979 213.715,18.979 C226.271,18.979 228.899,30.805 228.971,36.937 C228.971,38.032 228.899,38.689 228.825,39.565 L200.648,39.565 C200.648,51.829 207.363,56.574 215.101,56.574 C220.503,56.574 223.423,55.479 225.686,54.384 L226.781,57.741 L226.781,57.741 Z M224.372,36.061 C224.445,30.44 222.109,22.629 213.276,22.629 C205.1,22.629 201.523,30.148 200.867,36.061 L224.372,36.061 L224.372,36.061 Z" id="Shape"></path>
                    <path d="M255.396,23.505 C254.812,23.359 254.228,23.359 253.425,23.359 C246.856,23.359 243.06,30.439 243.06,37.593 L243.06,59.42 L238.534,59.42 L238.534,31.607 C238.534,27.666 238.461,23.796 238.242,19.855 L242.33,19.855 L242.476,27.738 L242.768,27.738 C244.447,22.847 248.535,18.979 253.717,18.979 C254.301,18.979 254.812,19.125 255.396,19.198 L255.396,23.505 L255.396,23.505 Z" id="Shape"></path>
                    <path d="M287.662,50.003 C287.662,53.143 287.735,56.5 288.174,59.42 L284.013,59.42 L283.502,53.945 L283.282,53.945 C281.385,57.084 277.078,60.296 271.092,60.296 C263.354,60.296 259.559,54.748 259.559,49.346 C259.559,40.075 267.662,34.746 283.137,34.893 C283.137,31.024 283.137,22.629 273.428,22.629 C270.071,22.629 266.493,23.578 263.719,25.549 L262.406,22.337 C265.837,20.074 270.143,18.979 274.012,18.979 C285.181,18.979 287.662,27.154 287.662,34.601 L287.662,50.003 L287.662,50.003 Z M283.209,38.47 C274.961,38.47 264.303,39.491 264.303,48.69 C264.303,54.165 267.88,56.647 271.823,56.647 C280.29,56.647 283.21,49.566 283.21,46.646 L283.21,38.47 L283.209,38.47 Z" id="Shape"></path>
                </g>
            </g>
            <g id="Logo_Real_Madrid">
                <path d="M61.7921425,57.2599264 C61.794287,68.0865896 56.0426613,78.0917601 46.7043495,83.5057133 C37.3660377,88.9196665 25.860144,88.9196665 16.5218322,83.5057133 C7.18352045,78.0917601 1.43189472,68.0865896 1.43403918,57.2599264 C1.43189472,46.4332633 7.18352045,36.4280927 16.5218322,31.0141395 C25.860144,25.6001863 37.3660377,25.6001863 46.7043495,31.0141395 C56.0426613,36.4280927 61.794287,46.4332633 61.7921425,57.2599264 L61.7921425,57.2599264 Z" id="path23601" fill="#FFFFFF" fill-rule="nonzero"></path>
                <path d="M31.0312977,0.277526483 L31.0312977,1.25785621 L30.03833,1.25785621 L30.03833,2.26384901 L31.0364243,2.26384901 L31.0364243,3.41355507 C31.0364243,3.41355507 30.6657054,3.36442813 30.4170909,3.51107478 C30.1684763,3.65772144 30.0434566,4.00380595 30.0434566,4.00380595 C30.0434566,4.0038076 29.4614178,3.79116946 29.0300153,3.95247979 C28.5986128,4.11379012 28.3185508,4.645383 28.3185508,4.645383 C28.3185508,4.64538136 27.7518263,4.10446929 27.1362109,4.23990631 C26.4198,4.39751787 25.9794547,5.32802097 25.9794547,5.32802097 C25.9794383,5.32801769 25.3723563,4.92264119 24.8073351,5.17404248 C23.9407794,5.55962105 23.8553145,6.60090983 23.8553145,6.60090983 C23.8553145,6.60090983 22.5644647,6.43867316 22.1560089,6.7497557 C21.7483066,7.06026832 21.828432,8.38706032 21.828432,8.38706032 C21.828432,8.38706196 21.3763266,8.29876289 21.0350897,8.40245817 C20.6938527,8.50615509 20.4669401,8.80280224 20.4669401,8.80280224 C20.4669401,8.80280224 20.1701718,8.18175566 19.3153105,8.18175566 C18.4413843,8.18175402 18.0050026,9.17235062 18.0050026,9.17235062 C18.0049862,9.17234898 16.7931807,8.93159889 16.3773545,9.17235062 C15.9552552,9.41672229 15.8962258,10.3887807 15.8962258,10.3887807 C15.8962094,10.3887823 14.7527201,10.1878071 14.2941615,10.6556767 C13.8356028,11.123548 14.0587155,12.257053 14.0587155,12.257053 C14.0587155,12.2570498 12.8493341,12.1366952 12.620456,12.606071 C12.3648641,13.1302285 12.5385618,14.4281498 12.5385618,14.4281498 C12.5385618,14.4281498 11.6025106,14.5089133 11.4073893,15.2391031 C11.244256,15.8496431 11.8066238,16.8507447 11.8066238,16.8507447 C11.8066238,16.8507447 10.9920709,17.2048952 10.7983091,17.6924938 C10.6045309,18.180094 11.033755,18.8011389 11.033755,18.8011389 L10.6498676,20.792594 C10.6498676,20.7925957 10.1927994,21.6053985 11.0081549,22.7429883 C11.8065583,23.8569253 13.0811111,23.1228019 13.0811111,23.1228019 C13.0810948,23.1228019 13.5052087,23.4505568 14.0536053,23.5385438 C14.6020019,23.6265341 15.2717822,23.4769524 15.2717822,23.4769524 C15.2717822,23.4769524 15.0999517,24.0364076 15.3229661,24.3700276 C15.5459805,24.703651 16.1674923,24.8114326 16.1674923,24.8114326 L16.4438854,25.4684075 L16.2698601,26.2639631 L17.0785658,26.9619989 L17.3600854,28.0985063 C17.3600854,28.0985063 23.2576995,24.7751167 31.609684,24.7751167 C39.3771566,24.7751167 45.854156,28.0691773 45.854156,28.0691773 L46.1407858,26.9619989 L46.9443813,26.2639631 L46.7754662,25.4684075 L47.0518593,24.8114326 C47.0518593,24.8114326 47.6733875,24.7036477 47.8964019,24.3700276 C48.1194163,24.0364109 47.9424592,23.4769524 47.9424592,23.4769524 C47.9424592,23.4769524 48.6173661,23.6265324 49.1657627,23.5385438 C49.7141593,23.4505584 50.1382568,23.1228019 50.1382568,23.1228019 C50.1382568,23.1228019 51.4127934,23.856927 52.2111967,22.7429883 C53.0265522,21.6053968 52.5643738,20.792594 52.5643738,20.792594 L52.185613,18.8011389 C52.185613,18.8011389 52.6148207,18.1800923 52.4210589,17.6924938 C52.2272971,17.2048969 51.4127278,16.8507447 51.4127278,16.8507447 C51.4127278,16.8507447 51.9699854,15.8496447 51.8068521,15.2391031 C51.6117472,14.5089117 50.6808062,14.4281498 50.6808062,14.4281498 C50.6808062,14.4281498 50.8545039,13.1302269 50.598912,12.606071 C50.3700339,12.1366969 49.1606361,12.257053 49.1606361,12.257053 C49.1606361,12.2570498 49.3837488,11.123548 48.9251902,10.6556767 C48.4666315,10.1878071 47.3231422,10.3887807 47.3231422,10.3887807 C47.3231422,10.3887823 47.2641128,9.41672393 46.8420135,9.17235062 C46.4261709,8.93159724 45.2143654,9.17235062 45.2143654,9.17235062 C45.214349,9.17234898 44.7779837,8.18175566 43.9040575,8.18175566 C43.0491962,8.18175402 42.7524115,8.80280224 42.7524115,8.80280224 C42.7524115,8.80280224 42.5255153,8.5061518 42.1842783,8.40245817 C41.843025,8.29876618 41.3909197,8.38706032 41.3909197,8.38706032 C41.3909197,8.38706196 41.4710614,7.06026996 41.0633427,6.7497557 C40.6548869,6.43867152 39.3640371,6.60090983 39.3640371,6.60090983 C39.3640371,6.60090983 39.2785886,5.55961941 38.4120165,5.17404248 C37.8470117,4.92264283 37.2399133,5.32802097 37.2399133,5.32802097 C37.2399133,5.32801769 36.799568,4.39751787 36.0831571,4.23990631 C35.4675417,4.10446929 34.9008008,4.645383 34.9008008,4.645383 C34.9008008,4.64538136 34.6207552,4.11379176 34.1893527,3.95247979 C33.7579338,3.79116782 33.1759114,4.00380595 33.1759114,4.00380595 C33.1759114,4.0038076 33.0457487,3.65772144 32.7971505,3.51107478 C32.5485524,3.36442813 32.1778171,3.41355507 32.1778171,3.41355507 L32.1778171,2.26384901 L33.1759114,2.26384901 L33.1759114,1.25785621 L32.1880539,1.25785621 L32.1880539,0.277526483 L31.0312977,0.277526483 Z" id="path24490" fill="#FFFFFF"></path>
                <path d="M28.3051707,11.0750304 C27.6306111,11.0773692 26.9202817,11.1380885 26.2219858,11.2957329 C23.4288075,11.9263122 20.847676,13.903102 20.847676,13.903102 C20.847676,13.903102 20.718677,13.9117396 20.6429404,13.9184998 C20.6908427,14.0184619 20.7197163,14.1288649 20.7197163,14.2469873 C20.7197163,14.6648365 20.3840021,15.0014819 19.9673129,15.0014819 C19.5506238,15.0014835 19.2097911,14.6648348 19.2097911,14.2469873 C19.2097911,14.2069956 19.2140159,14.1673028 19.2200279,14.1289371 C18.4711694,14.2697219 17.5661093,14.4864399 16.6915431,14.8372382 C14.7173073,15.6291245 12.9499998,17.0699263 12.9499998,17.0699263 L14.6493054,21.1760194 L13.6512193,22.7004064 L16.8706868,23.696134 C16.8706868,23.6961324 24.0539816,20.1560954 31.6730715,20.1854244 C39.2921615,20.2147551 47.3455826,23.8141842 47.3455826,23.8141842 L48.2259457,22.7004064 L49.9815536,22.8749154 L49.2189134,20.939919 L50.2733018,18.1221126 L49.7153973,16.7568367 C49.7153956,16.756835 48.7840615,15.6079683 47.1101366,14.893697 C46.1356147,14.4778663 44.9192952,14.2140449 44.0646944,14.0622131 C44.0875494,14.1340812 44.1056415,14.2085411 44.1056415,14.2880482 C44.1056415,14.7058941 43.7648091,15.0476754 43.3481197,15.0476754 C42.9314304,15.0476771 42.5957164,14.7058958 42.5957164,14.2880482 C42.5957147,14.0739516 42.6840393,13.8810901 42.8260439,13.7439909 C42.2466389,13.2774073 40.308528,11.8230029 38.0096387,11.2957329 C35.2603342,10.6651536 32.021122,11.588292 32.021122,11.588292 C32.021122,11.588292 30.3288479,11.0680155 28.3051707,11.0750304 Z M31.5809405,11.5472311 C31.9976298,11.5472311 32.3333438,11.8890108 32.3333438,12.3068583 C32.3333438,12.7247042 31.9976298,13.0613529 31.5809405,13.0613529 C31.1642511,13.0613546 30.8234187,12.7247058 30.8234187,12.3068583 C30.8234187,11.8890108 31.1642511,11.5472311 31.5809405,11.5472311 Z M31.6218876,14.4163636 C32.4245642,14.4163653 33.0755104,15.0691191 33.0755104,15.8740267 C33.0755121,16.6789343 32.4245642,17.3316897 31.6218876,17.3316897 C30.8192093,17.3316881 30.1682647,16.6789343 30.1682647,15.8740267 C30.1682647,15.0691191 30.819211,14.4163636 31.6218876,14.4163636 Z M41.961036,15.6173959 C42.7637126,15.6173975 43.4146588,16.2701513 43.4146588,17.0750589 C43.4146572,17.8799665 42.7637126,18.5327219 41.961036,18.5327219 C41.1583577,18.5327236 40.5074131,17.8799665 40.5074131,17.0750589 C40.5074115,16.2701497 41.1583594,15.6173959 41.961036,15.6173959 Z M21.2980944,15.6379263 C22.1007715,15.6379263 22.7517172,16.2906818 22.7517172,17.0955894 C22.7517166,17.9005002 22.1007715,18.5532524 21.2980944,18.5532524 C20.4954171,18.5532524 19.8444715,17.9004969 19.8444715,17.0955894 C19.8444714,16.2906834 20.4954173,15.6379263 21.2980944,15.6379263 Z" id="path19002" stroke="#173980" stroke-width="0.3" fill="#E1233B"></path>
                <path d="M31.0360885,0.250342505 L31.0360885,1.23067223 L30.0431208,1.23067223 L30.0431208,2.23666503 L31.0412069,2.23666503 L31.0412069,3.3863711 C31.0412069,3.3863711 30.670488,3.33724416 30.4218817,3.48389081 C30.1732704,3.63053746 30.0482392,3.97662198 30.0482392,3.97662198 C30.0482376,3.97662362 29.4662053,3.76398548 29.0347979,3.92529581 C28.6033954,4.08660614 28.3233417,4.61819902 28.3233417,4.61819902 C28.3233367,4.61819738 27.7566089,4.07728531 27.1409935,4.21272233 C26.4245794,4.37033389 25.9842373,5.30083699 25.9842373,5.30083699 C25.9842324,5.30083371 25.3771372,4.89545721 24.8121259,5.1468585 C23.9455615,5.53243707 23.8601053,6.57372585 23.8601053,6.57372585 C23.8601032,6.57372585 22.5692571,6.41148918 22.1607998,6.72257172 C21.7530878,7.03308434 21.8332228,8.35987634 21.8332228,8.35987634 C21.8332246,8.35987798 21.3811158,8.27157891 21.0398723,8.37527419 C20.6986339,8.47897111 20.471731,8.77561826 20.471731,8.77561826 C20.4717295,8.77561826 20.1749528,8.15457169 19.3200931,8.15457169 C18.4461687,8.15457004 18.0097852,9.14516664 18.0097852,9.14516664 C18.0097805,9.145165 16.7979732,8.90441491 16.3821371,9.14516664 C15.9600426,9.38953831 15.9010084,10.3615967 15.9010084,10.3615967 C15.901005,10.3615984 14.7575125,10.1606232 14.2989523,10.6284928 C13.8403887,11.096364 14.0635063,12.2298691 14.0635063,12.2298691 C14.0635047,12.2298658 12.8541167,12.1095113 12.6252386,12.578887 C12.3696451,13.1030445 12.5433444,14.4009658 12.5433444,14.4009658 C12.5433428,14.4009658 11.6072915,14.4817294 11.4121801,15.2119192 C11.2490353,15.8224591 11.8114146,16.8235607 11.8114146,16.8235607 C11.8114129,16.8235607 10.99686,17.1777112 10.8030917,17.6653098 C10.6093234,18.15291 11.0385377,18.7739549 11.0385377,18.7739549 L10.6546584,20.7654101 C10.65466,20.7654117 10.1975837,21.5782145 11.0129457,22.7158043 C11.8113507,23.8297413 13.0858938,23.0956179 13.0858938,23.0956179 C13.0858889,23.0956179 13.509988,23.4233728 14.0583879,23.5113598 C14.6067845,23.5993501 15.2765648,23.4497684 15.2765648,23.4497684 C15.2765646,23.4497684 15.1047327,24.0092236 15.3277487,24.3428437 C15.5507646,24.676467 16.1722831,24.7842487 16.1722831,24.7842487 L16.4486762,25.4412236 L16.2746509,26.2367791 L17.0833566,26.9348149 L17.3648681,28.0713224 C17.3648681,28.0713224 23.2624813,24.7479327 31.6144666,24.7479327 C39.3819359,24.7479327 45.8589468,28.0419934 45.8589468,28.0419934 L46.1455767,26.9348149 L46.9491639,26.2367791 L46.780257,25.4412236 L47.0566501,24.7842487 C47.0566485,24.7842487 47.6781701,24.6764637 47.9011845,24.3428437 C48.1242006,24.0092269 47.94725,23.4497684 47.94725,23.4497684 C47.9472517,23.4497684 48.6221471,23.5993485 49.1705453,23.5113598 C49.7189485,23.4233744 50.1430395,23.0956179 50.1430395,23.0956179 C50.1430362,23.0956179 51.4175776,23.829743 52.2159875,22.7158043 C53.0313447,21.5782128 52.5691565,20.7654101 52.5691565,20.7654101 L52.1903956,18.7739549 C52.1903923,18.7739549 52.6196082,18.1529083 52.4258415,17.6653098 C52.2320765,17.1777129 51.4175187,16.8235607 51.4175187,16.8235607 C51.4175203,16.8235607 51.9747762,15.8224607 51.8116347,15.2119192 C51.6165282,14.4817277 50.6855888,14.4009658 50.6855888,14.4009658 C50.6855921,14.4009658 50.8592849,13.1030429 50.6036946,12.578887 C50.3748198,12.1095129 49.1654269,12.2298691 49.1654269,12.2298691 C49.1654286,12.2298658 49.3885412,11.096364 48.929981,10.6284928 C48.4714256,10.1606232 47.3279248,10.3615967 47.3279248,10.3615967 C47.3279297,10.3615984 47.2688922,9.38953995 46.8467961,9.14516664 C46.4309584,8.90441327 45.219148,9.14516664 45.219148,9.14516664 C45.2191431,9.145165 44.782768,8.15457169 43.9088401,8.15457169 C43.0539788,8.15457004 42.7572023,8.77561826 42.7572023,8.77561826 C42.7572039,8.77561826 42.5303044,8.47896782 42.189061,8.37527419 C41.8478142,8.2715822 41.3957105,8.35987634 41.3957105,8.35987634 C41.3957088,8.35987798 41.475844,7.03308598 41.0681335,6.72257172 C40.6596794,6.41148754 39.3688279,6.57372585 39.3688279,6.57372585 C39.3688295,6.57372585 39.283368,5.53243543 38.4168073,5.1468585 C37.8517911,4.89545885 37.2446959,5.30083699 37.2446959,5.30083699 C37.2446927,5.30083371 36.8043588,4.37033389 36.0879397,4.21272233 C35.472321,4.07728531 34.9055916,4.61819902 34.9055916,4.61819902 C34.9055867,4.61819738 34.6255427,4.08660779 34.1941353,3.92529581 C33.7627246,3.76398384 33.180694,3.97662198 33.180694,3.97662198 C33.1806973,3.97662362 33.0505412,3.63053746 32.8019332,3.48389081 C32.5533317,3.33724416 32.1826079,3.3863711 32.1826079,3.3863711 L32.1826079,2.23666503 L33.180694,2.23666503 L33.180694,1.23067223 L32.1928447,1.23067223 L32.1928447,0.250342505 L31.0360885,0.250342505 Z M29.403322,4.69518827 C29.5522582,4.68461425 29.7096736,4.71739402 29.848622,4.79784059 C30.2191476,5.01235932 30.3440576,5.48360248 30.1301334,5.85515956 C29.9162126,6.22671828 29.4411522,6.35710152 29.0706266,6.14258608 C28.700101,5.92806571 28.5751878,5.45168828 28.7891152,5.08013449 C28.922819,4.84791029 29.1550924,4.71280997 29.403322,4.69518827 Z M33.6822963,4.69518827 C33.8312324,4.68461425 33.9835295,4.71739402 34.1224779,4.79784059 C34.4930035,5.01235768 34.6230319,5.48360248 34.4091077,5.85515956 C34.1951885,6.22671664 33.7201265,6.35710152 33.3496009,6.14258608 C32.9790753,5.92806899 32.8490436,5.45168828 33.0629711,5.08013449 C33.1966749,4.84791193 33.4340667,4.71280997 33.6822963,4.69518827 Z M27.2740717,5.00314525 C27.4230094,4.99257124 27.5753049,5.025351 27.7142532,5.10579757 C28.0847772,5.3203163 28.2148072,5.79669208 28.0008831,6.16824916 C27.7869606,6.53980788 27.3119019,6.6650585 26.9413763,6.45054306 C26.5708474,6.23602269 26.440819,5.76477788 26.6547464,5.39322409 C26.7884486,5.16099989 27.025842,5.02076696 27.2740717,5.00314525 Z M35.842257,5.00314525 C35.9911931,4.99257124 36.1486086,5.025351 36.287557,5.10579757 C36.6580826,5.32031466 36.7829926,5.79669208 36.5690684,6.16824916 C36.3551476,6.53980624 35.8800872,6.6650585 35.5095616,6.45054306 C35.139036,6.23602597 35.0141227,5.76477788 35.2280502,5.39322409 C35.361754,5.16100153 35.5940274,5.02076696 35.842257,5.00314525 Z M25.0834006,5.79356816 C25.2323363,5.78299415 25.3846338,5.81577392 25.5235822,5.89622049 C25.8941061,6.11073758 26.0190178,6.587115 25.8050936,6.95867208 C25.5911711,7.3302308 25.1212308,7.45547978 24.7507052,7.24096598 C24.3801775,7.02644889 24.250148,6.55006654 24.4640754,6.17851439 C24.5977771,5.94629019 24.835171,5.81118987 25.0834006,5.79356816 Z M37.9868625,5.79356816 C38.1357987,5.78299415 38.2880958,5.81577392 38.4270441,5.89622049 C38.7975713,6.11073758 38.9224797,6.587115 38.7085556,6.95867208 C38.4946363,7.3302308 38.0195744,7.45548306 37.6490488,7.24096598 C37.2785232,7.02644725 37.1536099,6.55006818 37.3675373,6.17851439 C37.5012411,5.94629183 37.7386329,5.81118987 37.9868625,5.79356816 Z M31.5581643,6.68151079 C31.7071005,6.67093678 31.8594008,6.7037149 31.9983459,6.78416312 C32.3688731,6.99868185 32.4989032,7.47505598 32.2849757,7.84661471 C32.0710582,8.21817343 31.5959978,8.3434224 31.225469,8.1289086 C30.854945,7.91438824 30.724915,7.44314179 30.9388391,7.07158964 C31.0725429,6.83936708 31.309938,6.69913086 31.5581643,6.68151079 Z M23.0565181,7.14857888 C23.2054537,7.13800487 23.3577513,7.17078463 23.4966996,7.25123121 C23.8672264,7.46574665 23.9921352,7.94212572 23.7782111,8.31368279 C23.5642914,8.68523823 23.0943483,8.81049213 22.7238227,8.59597669 C22.353294,8.38145797 22.2232654,7.9050789 22.4371928,7.53352511 C22.5708968,7.30130091 22.8082884,7.16620059 23.0565181,7.14857888 Z M40.0035083,7.14857888 C40.1524445,7.13800487 40.3047415,7.17078463 40.4436899,7.25123121 C40.8142138,7.46574665 40.9442439,7.94212572 40.7303197,8.31368279 C40.5163989,8.68523823 40.0413385,8.81049213 39.6708129,8.59597669 C39.3002857,8.38145797 39.1702557,7.9050789 39.3841831,7.53352511 C39.5178853,7.30130091 39.7552787,7.16620059 40.0035083,7.14857888 Z M32.9401297,7.36414877 C33.5666469,7.35499218 36.2111431,7.42843212 38.4321625,9.17596234 C40.9709398,11.1735109 41.4008305,14.8526377 41.4008289,14.852636 C41.4008289,14.852636 41.1163938,14.9369571 40.904345,15.1349299 C40.6922979,15.3329027 40.5562994,15.6430589 40.5562945,15.6430589 C40.5562945,15.6430589 38.9951871,15.5755646 38.9951854,17.3162919 C38.9951854,18.4349542 40.4078644,18.866342 40.4078611,18.866342 C40.4078611,18.866342 39.7420577,19.6262895 39.1180268,19.615704 C38.4412151,19.6045913 37.7463015,18.3684782 37.7462982,18.3684782 C37.7462982,18.3684782 38.6274786,16.2076467 36.6048972,16.2076467 C34.9271412,16.2076467 35.2587621,18.250428 35.2587605,18.250428 C35.2587605,18.250428 34.6081156,18.9926142 33.9023871,18.9587291 C32.9227026,18.9113431 32.7149254,17.6961055 32.7149205,17.6961055 C32.7149205,17.6961055 34.4858852,17.8226191 34.4858836,16.3975535 C34.4858836,14.9618959 33.211406,14.7345842 33.2114044,14.7345858 C33.2114044,14.7345858 33.2764825,14.2213242 32.9913136,13.9133672 C32.7061464,13.6054103 32.070005,13.5027563 32.0700034,13.5027579 C32.0700034,13.5027579 32.6747792,13.1700708 32.7968148,12.6866719 C32.9223734,12.1893321 32.6586232,11.5934246 32.6586182,11.5934246 L32.6586182,10.6284928 C32.6586182,10.6284928 32.8889507,10.2904759 32.8889458,9.94585479 C32.8889458,9.60123697 32.6586232,9.24781733 32.6586182,9.24781897 L32.6586182,8.2520914 C32.6640511,8.23574915 32.7693131,7.90198948 32.8019332,7.77989069 C32.8402253,7.63658969 32.8019364,7.36928138 32.8019332,7.36928138 C32.8019332,7.36928138 32.8506275,7.36545615 32.9401297,7.36414877 Z M29.9561082,7.36928138 C30.0927029,7.364924 30.2053959,7.36804956 30.2836851,7.36928138 C30.3731595,7.37068895 30.421885,7.36928138 30.4218817,7.36928138 C30.42188,7.36928138 30.3835928,7.63658969 30.4218817,7.77989069 C30.4545051,7.90198948 30.559767,8.23574915 30.5651966,8.2520914 L30.5651966,9.24781897 C30.5651982,9.24781733 30.3348723,9.60123697 30.334869,9.94585479 C30.3348674,10.2904759 30.5651999,10.6284928 30.5651966,10.6284928 L30.5651966,11.5934246 C30.5651982,11.5934246 30.3014447,12.1893321 30.4270001,12.6866719 C30.5490389,13.1700708 31.1486964,13.5027579 31.1486931,13.5027579 C31.1486931,13.5027563 30.5176717,13.6054103 30.2325012,13.9133672 C29.947334,14.2213242 30.0124137,14.7345858 30.0124105,14.7345858 C30.0124121,14.7345842 28.7379346,14.9618959 28.7379313,16.3975535 C28.7379329,17.8226191 30.5088976,17.6961055 30.5088943,17.6961055 C30.508896,17.6961055 30.3011155,18.9113431 29.3214278,18.9587291 C28.6157025,18.9926142 27.9650576,18.250428 27.9650543,18.250428 C27.965056,18.250428 28.2966769,16.2076467 26.6189177,16.2076467 C24.596339,16.2076467 25.4775199,18.3684782 25.4775167,18.3684782 C25.4775167,18.3684782 24.782603,19.6045913 24.1057881,19.615704 C23.4817583,19.6262895 22.815957,18.866342 22.8159537,18.866342 C22.8159539,18.866342 24.2286327,18.4349542 24.2286294,17.3162919 C24.2286306,15.5755646 22.6675237,15.6430589 22.6675204,15.6430589 C22.6675189,15.6430589 22.5315203,15.3329027 22.3194699,15.1349299 C22.1074245,14.9369571 21.8229893,14.852636 21.822986,14.852636 C21.8229878,14.8526377 22.2528784,11.1735109 24.7916524,9.17596234 C26.7350454,7.64687299 28.9999486,7.39977816 29.9561082,7.36928138 Z M19.3098564,8.7858835 C19.4587943,8.77530949 19.616208,8.80808925 19.7551563,8.88853582 C20.1256837,9.10305127 20.2505919,9.57943033 20.0366678,9.95098741 C19.8227454,10.3225461 19.3476866,10.4529294 18.977161,10.2384139 C18.6066323,10.0238952 18.4817221,9.54751613 18.6956495,9.17596234 C18.8293502,8.94373814 19.0616267,8.80350521 19.3098564,8.7858835 Z M43.7859987,8.7858835 C43.9349349,8.77530949 44.0923504,8.80808925 44.2312987,8.88853582 C44.6018226,9.10305127 44.7267343,9.57943033 44.5128102,9.95098741 C44.2988893,10.3225461 43.823829,10.4529294 43.4533034,10.2384139 C43.0827761,10.0238952 42.9578645,9.54751613 43.1717919,9.17596234 C43.3054941,8.94373814 43.5377691,8.80350521 43.7859987,8.7858835 Z M21.4646987,8.98092292 C21.613635,8.97034891 21.7659319,9.00312867 21.9048802,9.08357525 C22.275406,9.29809069 22.4003159,9.76933714 22.1863917,10.1408942 C21.9724726,10.5124496 21.4974105,10.6428362 21.1268849,10.4283207 C20.7563595,10.213802 20.631446,9.73742294 20.8453734,9.36586915 C20.9790774,9.13364494 21.216469,8.99854463 21.4646987,8.98092292 Z M41.5850909,8.98092292 C41.7340271,8.97034891 41.8863241,9.00312867 42.0252725,9.08357525 C42.3957964,9.29809069 42.5258265,9.76933714 42.3119023,10.1408942 C42.0979815,10.5124496 41.6229211,10.6428362 41.2523955,10.4283207 C40.8818683,10.213802 40.7569566,9.73742294 40.9708841,9.36586915 C41.1045863,9.13364494 41.3368613,8.99854463 41.5850909,8.98092292 Z M31.5581643,9.15029926 C31.7071005,9.13972525 31.8594008,9.17250337 31.9983459,9.25295159 C32.3688731,9.46746703 32.4989015,9.94384445 32.2849757,10.3154032 C32.0710565,10.6869619 31.5959962,10.8122109 31.225469,10.5976971 C30.8549434,10.3831783 30.7249166,9.90679764 30.9388391,9.53524548 C31.0725429,9.30302128 31.309938,9.16791933 31.5581643,9.15029926 Z M17.2829738,9.62249996 C17.4319098,9.61192595 17.5893254,9.64470571 17.7282738,9.72515229 C18.0987992,9.93966773 18.2237094,10.4160468 18.0097852,10.7876039 C17.7958662,11.1591593 17.320804,11.2895458 16.9502784,11.0750304 C16.5797527,10.8605117 16.4548396,10.3841326 16.668767,10.0125788 C16.8024706,9.78035461 17.0347442,9.64012167 17.2829738,9.62249996 Z M45.8794204,9.62249996 C46.0283532,9.61192595 46.1857835,9.64470571 46.3247203,9.72515229 C46.6952426,9.93966773 46.8201592,10.4160468 46.6062318,10.7876039 C46.3923076,11.1591593 45.9172522,11.2895458 45.546725,11.0750304 C45.1762027,10.8605117 45.0512927,10.3841326 45.2652135,10.0125788 C45.3989141,9.78035461 45.6311858,9.64012167 45.8794204,9.62249996 Z M20.4205471,11.0750304 C20.569485,11.0644564 20.7217803,11.0921035 20.8607286,11.1725501 C21.231256,11.3870672 21.3561642,11.8634446 21.1422401,12.2350017 C20.928321,12.6065571 20.4532589,12.7369436 20.0827333,12.5224282 C19.7122046,12.3079111 19.5872944,11.8315304 19.8012218,11.4599766 C19.9349225,11.2277541 20.1723174,11.0926521 20.4205471,11.0750304 Z M42.6497161,11.0750304 C42.7986522,11.0644564 42.9509493,11.0921035 43.0898976,11.1725501 C43.4604249,11.3870672 43.5853333,11.8634446 43.3714091,12.2350017 C43.1574899,12.6065571 42.6824279,12.7369436 42.3119023,12.5224282 C41.9413735,12.3079111 41.8164634,11.8315304 42.0303909,11.4599766 C42.1640947,11.2277541 42.4014864,11.0926521 42.6497161,11.0750304 Z M15.2356177,11.1212239 C15.3845537,11.1106499 15.5419693,11.1434297 15.6809176,11.2238763 C16.0514431,11.438395 16.1763533,11.9096382 15.9624291,12.2811952 C15.7485097,12.6527523 15.2734479,12.7831372 14.9029223,12.5686217 C14.5323967,12.3541014 14.4074834,11.877724 14.6214109,11.5061702 C14.7551147,11.2739476 14.987388,11.1388456 15.2356177,11.1212239 Z M47.8755926,11.1212239 C48.0245254,11.1106499 48.1819557,11.1434297 48.3208925,11.2238763 C48.6914148,11.4383917 48.8163314,11.9096398 48.602404,12.2811952 C48.3884798,12.652754 47.9134244,12.7831372 47.5428972,12.5686217 C47.1723749,12.354103 47.0474649,11.877724 47.2613857,11.5061702 C47.3950863,11.273946 47.627358,11.1388456 47.8755926,11.1212239 Z M31.5581643,11.5523637 C31.7071005,11.5417897 31.8594008,11.5745678 31.9983459,11.655016 C32.3688731,11.8695315 32.4989015,12.3407763 32.2849757,12.712335 C32.0710565,13.0838937 31.5959978,13.2142753 31.225469,12.9997615 C30.8549434,12.7852428 30.7249166,12.3088621 30.9388391,11.9373099 C31.0725429,11.7050857 31.309938,11.5699838 31.5581643,11.5523637 Z M19.0744104,11.7166074 C19.0744106,11.7166074 19.0731345,12.1387664 19.1972518,12.4300411 C19.3213725,12.7213159 19.5708975,12.8817113 19.5708943,12.8817113 C19.5708928,12.8817097 18.475562,13.5463778 18.4755587,14.2161916 C18.4755605,15.1863645 19.4275826,15.6173959 19.4275793,15.6173959 L19.4275793,16.3205643 C19.4275811,16.3205643 18.2642454,16.8336059 18.6291105,18.1991019 C19.1100378,19.9989388 20.7327721,19.2666861 20.7327689,19.2666861 C20.732769,19.2666844 20.6484817,20.484123 19.6016046,20.7654101 C18.6786992,21.0133902 18.2503528,19.8877327 18.2503496,19.8877327 C18.2503497,19.887731 17.413243,18.4130375 16.249059,19.0870445 C14.7742303,19.9409033 15.9726692,21.2581412 15.9726659,21.2581412 C15.9726641,21.2581429 15.7271682,22.2043411 15.199789,22.5361627 C14.6724112,22.8679876 14.0276809,22.5874889 14.0276776,22.5874889 C14.0276759,22.5874872 14.7493723,22.099166 14.7493706,21.1554889 C14.749369,20.4191827 13.9867337,19.6413671 13.9867305,19.6413671 C13.9867288,19.6413654 13.8050432,17.0436374 15.0769476,15.0630733 C16.3488537,13.0825059 19.0744137,11.7166074 19.0744104,11.7166074 Z M44.1545228,11.7166074 C44.1545228,11.7166074 46.8800829,13.0825059 48.1519856,15.0630733 C49.4238933,17.0436374 49.2422077,19.6413654 49.2422028,19.6413671 C49.2422028,19.6413671 48.4079101,20.4191827 48.4079052,21.1554889 C48.4079052,22.099166 49.2012589,22.5874872 49.2012557,22.5874889 C49.2012557,22.5874889 48.5565236,22.8679876 48.0291443,22.5361627 C47.5017683,22.2043411 47.2562706,21.2581429 47.2562673,21.2581412 C47.2562673,21.2581412 48.4598245,19.9409033 46.9849927,19.0870445 C45.8208119,18.4130375 44.9837037,19.887731 44.9837021,19.8877327 C44.9837021,19.8877327 44.5553558,21.0133918 43.632447,20.7654101 C42.5855732,20.4841213 42.5012844,19.2666844 42.5012828,19.2666861 C42.5012828,19.2666861 44.1240172,19.9989388 44.6049412,18.1991019 C44.9698095,16.8336059 43.8064739,16.3205643 43.8064723,16.3205643 L43.8064723,15.6173959 C43.8064723,15.6173959 44.7533761,15.1863645 44.7533745,14.2161916 C44.7533745,13.5463778 43.6580439,12.8817097 43.658039,12.8817113 C43.658039,12.8817113 43.9280345,12.6083999 44.052155,12.3171235 C44.1762756,12.0258472 44.1545261,11.7166074 44.1545228,11.7166074 Z M13.6847454,12.8714461 C13.8336816,12.8608721 13.9910971,12.8936519 14.1300454,12.9740984 C14.5005726,13.1886172 14.625481,13.6649929 14.4115569,14.03655 C14.1976376,14.4081087 13.7225757,14.533361 13.3520501,14.3188439 C12.9815212,14.1043285 12.8566112,13.6279461 13.0705386,13.2563923 C13.2042424,13.0241698 13.4365158,12.8890678 13.6847454,12.8714461 Z M49.467412,12.8714461 C49.6163448,12.8608721 49.7686567,12.8936519 49.9075935,12.9740984 C50.2781158,13.1886155 50.4030324,13.6649929 50.189105,14.03655 C49.9751808,14.4081071 49.5001254,14.5333594 49.1295982,14.3188439 C48.7590759,14.1043268 48.6341659,13.6279461 48.8480867,13.2563923 C48.9817873,13.0241698 49.2191954,12.8890678 49.467412,12.8714461 Z M19.8933529,13.4924927 C20.0422892,13.4819187 20.1945861,13.5146984 20.3335344,13.595145 C20.7040602,13.8096637 20.82897,14.2860395 20.6150459,14.6575966 C20.4011252,15.0291553 19.9260647,15.1544076 19.5555391,14.9398905 C19.1850137,14.7253701 19.0601002,14.2541253 19.2740276,13.8825715 C19.4077316,13.6503473 19.6451232,13.5101144 19.8933529,13.4924927 Z M43.2792781,13.4924927 C43.4282142,13.4819187 43.5805113,13.5146984 43.7194597,13.595145 C44.0899836,13.8096605 44.2200137,14.2860412 44.0060895,14.6575966 C43.7921686,15.029157 43.3171083,15.1544059 42.9465827,14.9398905 C42.5760555,14.7253718 42.4460254,14.2541253 42.6599529,13.8825715 C42.793655,13.6503473 43.0310484,13.5101144 43.2792781,13.4924927 Z M31.5223356,14.5138833 C31.7752398,14.4959282 32.0336816,14.5517892 32.2696206,14.6883923 C32.898796,15.0526586 33.1140092,15.8590115 32.7507493,16.4899406 C32.3874959,17.1208698 31.5833747,17.3366696 30.9541943,16.9724066 C30.3250123,16.6081419 30.1098106,15.8017808 30.4730656,15.1708582 C30.700101,14.7765304 31.1008292,14.5438053 31.5223356,14.5138833 Z M12.6917777,15.0476754 C12.8407155,15.0371014 12.9981293,15.0698812 13.1370777,15.1503278 C13.5076049,15.3648465 13.6325133,15.8412223 13.4185891,16.2127794 C13.2046699,16.5843381 12.7296079,16.7147213 12.3590823,16.5002059 C11.9885535,16.2856855 11.8636435,15.8093081 12.0775709,15.4377543 C12.2112714,15.2055301 12.4435481,15.0652955 12.6917777,15.0476754 Z M50.5013268,15.0476754 C50.6502597,15.0371014 50.8025715,15.0698812 50.9415084,15.1503278 C51.3120471,15.3648465 51.4369472,15.8412223 51.2230198,16.2127794 C51.0090957,16.5843381 50.539157,16.7147213 50.1686314,16.5002059 C49.7981091,16.2856855 49.6680807,15.8093081 49.8820016,15.4377543 C50.0157021,15.2055301 50.2531102,15.0652955 50.5013268,15.0476754 Z M21.1780688,15.735446 C21.4309732,15.7174909 21.6894132,15.7733535 21.9253538,15.909955 C22.5545327,16.2742213 22.7748608,17.0857101 22.4116009,17.7166359 C22.048346,18.3475651 21.2391079,18.5633682 20.6099275,18.1991019 C19.9807506,17.8348389 19.7655438,17.0233451 20.1287988,16.3924209 C20.3558327,15.9980915 20.7565624,15.7653696 21.1780688,15.735446 Z M41.861484,15.735446 C42.1143881,15.7174909 42.37283,15.7733535 42.608769,15.909955 C43.2379477,16.2742164 43.4531576,17.0857101 43.0898976,17.7166359 C42.7266443,18.3475634 41.922523,18.5633682 41.2933427,18.1991019 C40.6641672,17.8348389 40.4489589,17.0233451 40.812214,16.3924209 C41.0392494,15.9980915 41.4399776,15.7653696 41.861484,15.735446 Z M12.1133996,17.4240768 C12.2623358,17.4135028 12.4197512,17.4462826 12.5586996,17.5267291 C12.9292252,17.7412462 13.0541352,18.2176237 12.840211,18.5891807 C12.6262918,18.9607362 12.1512315,19.0859901 11.7807042,18.8714746 C11.410177,18.6569575 11.285267,18.1805768 11.4991928,17.809023 C11.632895,17.5768005 11.86517,17.4416985 12.1133996,17.4240768 Z M50.9978106,17.4240768 C51.1467435,17.4135028 51.2990373,17.4462826 51.4379922,17.5267291 C51.8085145,17.7412479 51.9334327,18.2176237 51.7195037,18.5891807 C51.5055959,18.9607378 51.0305225,19.0859901 50.6599969,18.8714746 C50.2894582,18.6569526 50.1645662,18.1805768 50.3784854,17.809023 C50.512186,17.5768005 50.7495761,17.4416985 50.9978106,17.4240768 Z M31.5786379,17.8911449 C31.5786379,17.8911449 31.7285928,18.4522212 32.0751217,18.9279334 C32.4216523,19.4036424 32.9657233,19.7953505 32.9657217,19.7953456 L30.1915541,19.7953456 C30.1915541,19.7953456 30.6434973,19.4036391 30.990023,18.9279334 C31.3365536,18.4522245 31.5786428,17.8911465 31.5786379,17.8911449 Z M27.1358751,19.0203205 C27.1358751,19.0203205 27.3249394,19.2544253 27.6272406,19.4668581 C27.9295417,19.679291 28.287508,19.8518027 28.2875129,19.8518044 L25.2625443,20.1956896 C25.2625443,20.1956896 25.6267181,19.9477293 25.9740005,19.6413671 C26.2520823,19.3960461 26.3015759,19.0921771 26.3015775,19.0921771 L27.1358751,19.0203205 Z M35.9855719,19.0203205 L36.8249879,19.0921771 C36.8249879,19.0921771 36.8795999,19.3960444 37.1576833,19.6413671 C37.5049657,19.9477309 37.8589028,20.195688 37.8589028,20.1956896 L34.8339341,19.8518044 C34.8339374,19.8518044 35.2021405,19.679291 35.5044432,19.4668581 C35.8067444,19.2544253 35.9855719,19.0203221 35.9855719,19.0203205 Z M21.797394,19.1589011 C21.797394,19.1589011 22.0928924,19.6623229 22.5497974,20.0314459 C23.0067041,20.4005673 23.6297732,20.6370947 23.6297778,20.6370947 L20.9477413,21.3607936 C20.9477413,21.3607936 21.2828735,20.863618 21.495409,20.3137398 C21.7079472,19.7638617 21.7973922,19.1589028 21.797394,19.1589011 Z M41.3547633,19.1589011 C41.354765,19.1589011 41.4493283,19.7638633 41.6618668,20.3137398 C41.8744036,20.8636163 42.2044178,21.3607952 42.2044161,21.3607936 L39.527498,20.6370947 C39.5275029,20.637093 40.1505707,20.4005689 40.6074784,20.0314459 C41.0643811,19.6623213 41.354765,19.1589028 41.3547633,19.1589011 Z M12.3693191,20.0879047 C12.5814924,20.0933937 12.7971461,20.1537122 12.9937627,20.2675463 C13.6229415,20.6318109 13.8381514,21.4381671 13.4748914,22.0690946 C13.1116364,22.7000205 12.3075152,22.9158252 11.6783364,22.5515606 C11.0491593,22.1872943 10.8339511,21.3809364 11.1972078,20.7500122 C11.4469459,20.3162495 11.90254,20.0758279 12.3693191,20.0879047 Z M50.9210348,20.0879047 C51.1332064,20.0933937 51.3488716,20.1537122 51.5454784,20.2675463 C52.1746555,20.6318126 52.3898785,21.4381671 52.0266071,22.0690946 C51.663357,22.7000221 50.8541157,22.9158269 50.2249337,22.5515606 C49.5957566,22.1872959 49.3805598,21.3809364 49.743805,20.7500122 C49.9935497,20.3162495 50.4542589,20.0758279 50.9210348,20.0879047 Z M17.8971806,21.3453957 C17.8971806,21.3453957 18.1369332,21.5245232 18.4806771,21.6584853 C18.8244161,21.7924441 19.2126101,21.8740503 19.2126069,21.8740552 L16.3616636,22.9313742 C16.3616636,22.9313742 16.6442451,22.6038229 16.9093313,22.2230731 C17.1215958,21.9181891 17.1038301,21.6122901 17.1038301,21.6122918 L17.8971806,21.3453957 Z M45.3215158,21.3453957 L46.1199847,21.6122918 C46.1199847,21.6122901 46.0971018,21.9181908 46.3093651,22.2230731 C46.5744503,22.6038213 46.8672713,22.9313725 46.8672697,22.9313742 L44.0112079,21.8740552 C44.0112079,21.8740519 44.3993981,21.7924425 44.7431377,21.6584853 C45.0868741,21.5245248 45.3215158,21.3453941 45.3215158,21.3453957 Z M27.1409935,22.7260695 C27.5854991,22.7260679 27.9445808,23.0912835 27.9445808,23.5370229 C27.9445808,23.9827639 27.5854974,24.3428437 27.1409935,24.3428437 C26.6964928,24.3428437 26.3374062,23.9827623 26.3374062,23.5370229 C26.3374062,23.0912851 26.6964896,22.7260695 27.1409935,22.7260695 Z M35.7859547,22.7260695 C36.2304603,22.7260679 36.5895436,23.0912835 36.589542,23.5370229 C36.589542,23.9827639 36.2304603,24.3428437 35.7859547,24.3428437 C35.341454,24.3428437 34.9772507,23.9827623 34.977249,23.5370229 C34.977249,23.0912851 35.3414524,22.7260695 35.7859547,22.7260695 Z M18.8799116,25.0357469 C19.3244122,25.0357485 19.6834992,25.3958282 19.6834989,25.8415676 C19.6834989,26.287307 19.3244158,26.6473884 18.8799116,26.6473884 C18.435406,26.6473868 18.0763246,26.287307 18.0763243,25.8415676 C18.0763243,25.3958282 18.435408,25.0357469 18.8799116,25.0357469 Z M44.1186941,25.0357469 C44.5631964,25.0357485 44.9274014,25.3958282 44.9273998,25.8415676 C44.9274014,26.287307 44.5631997,26.6473884 44.1186941,26.6473884 C43.6741902,26.6473868 43.3151085,26.287307 43.3151068,25.8415676 C43.3151085,25.3958282 43.6741918,25.0357469 44.1186941,25.0357469 Z" id="path9070" stroke="#173980" stroke-width="0.3" fill="#FABC01"></path>
                <g id="g18995" transform="translate(16.319570, 21.304079)" stroke="#173980" fill-rule="nonzero" stroke-width="0.3">
                    <g id="g18983" transform="translate(4.766736, 0.124185)">
                        <rect id="rect13628" fill="#E1233B" transform="translate(10.538336, 1.903130) rotate(45.000000) translate(-10.538336, -1.903130) " x="9.22166482" y="0.582798845" width="2.63334307" height="2.64066218"></rect>
                        <rect id="rect13630" fill="#173980" transform="translate(19.098907, 2.986592) rotate(50.845147) translate(-19.098907, -2.986592) " x="17.7822347" y="1.66626157" width="2.63334498" height="2.64066158"></rect>
                        <rect id="rect13632" fill="#173980" transform="translate(1.958906, 2.986594) scale(-1, 1) rotate(50.845147) translate(-1.958906, -2.986594) " x="0.642232812" y="1.66626343" width="2.63334695" height="2.64066109"></rect>
                    </g>
                    <path d="M0.679755426,5.02554258 L0.0604302014,5.65172178 L0.679755426,6.27276836 L1.29908065,5.65172178 L0.679755426,5.02554258 Z M29.9006456,5.02554258 L29.276202,5.65172178 L29.9006456,6.27276836 L30.5199708,5.65172178 L29.9006456,5.02554258 Z" id="rect18089" fill="#E1233B"></path>
                </g>
                <path d="M16.29,25.2374924 C23.6654426,20.9557538 38.387886,20.2630361 46.9565578,25.2374924" id="path19046" stroke="#173980" stroke-width="0.3"></path>
                <g id="g21727" transform="translate(0.190122, 25.749581)">
                    <path d="M31.4304858,0.0887211744 C14.1142754,0.0887211744 0.0598766448,14.1821811 0.0598782827,31.5465268 C0.0598782827,48.9108676 14.1142917,63.0043324 31.4304858,63.0043324 C48.7466963,63.0043324 62.7959815,48.9108627 62.7959815,31.5465268 C62.7959815,14.182186 48.7467127,0.0887211744 31.4304858,0.0887211744 Z M31.4304858,4.16401856 C46.5028431,4.16401692 58.7319796,16.4322774 58.7319796,31.5465268 C58.7319796,46.6607746 46.5028431,58.929035 31.4304858,58.929035 C16.3581285,58.929035 4.12388181,46.6607762 4.12388181,31.5465268 C4.12388181,16.4322774 16.3581285,4.16401856 31.4304858,4.16401856 Z" id="path20831" stroke="#173980" stroke-width="0.6" fill="#FABC01" fill-rule="nonzero"></path>
                    <g id="g21723" transform="translate(5.419276, 8.963219)">
                        <path d="M4.16903795,14.0053314 L36.3159915,46.8209775 C36.3159915,46.8209775 40.7436504,44.6207977 43.7148628,41.9930643 C46.6860931,39.3653293 48.0770767,36.2272745 48.0770767,36.2272745 L13.3715666,1.13563883 L4.16903795,14.0053314 Z" id="path20836" fill="#173980"></path>
                        <path d="M38.8820058,0.0896227537 L32.7428113,6.24587239 C31.088122,5.60670618 29.3757173,5.22859677 27.6564928,5.10337039 C27.4648566,5.08941391 27.2682887,5.07541663 27.0766525,5.0676672 C24.3973916,4.95936944 21.7298983,5.46353272 19.2844127,6.52129698 L12.962127,0.18143095 C9.18016841,2.38400181 5.90477464,5.57475366 3.56261044,9.64277568 C-2.02722913,19.3515602 -0.651074804,31.1817506 6.13119313,39.3121246 L9.6509255,35.7265045 C1.34624514,27.9303401 3.39325638,13.4830399 12.5908176,5.59301411 L15.5612275,8.70939234 C14.1090307,9.82782509 12.8110348,11.1922222 11.7414105,12.7897566 C6.43490737,20.7152571 8.69048209,31.3898786 16.7768658,36.6190842 C18.3146592,37.613531 19.9530397,38.3376781 21.6342918,38.8071795 L21.6342918,43.5046989 L25.2303271,43.5046989 L25.2303271,39.4192342 C30.6933749,39.7808785 36.1865337,37.6203566 39.8484063,33.3037882 L36.9135924,30.0547981 C34.1117552,33.7126521 29.6391479,35.5182117 25.2303271,35.1297512 L25.2303271,31.5951356 L30.3674924,31.5951356 L30.3674924,28.463456 L25.2303271,28.463456 L25.2303271,25.3317764 L30.3674924,25.3317764 L30.3674924,22.6897405 L21.6342918,22.6897405 L21.6342918,34.298377 C20.7853242,33.9728879 19.9591596,33.5607499 19.1674355,33.0487654 C13.0927111,29.1204306 11.3968104,21.1000224 15.3832145,15.146167 C16.2595913,13.8372547 17.3389325,12.7359252 18.5519828,11.8563733 L25.8254182,19.4968555 L33.5210262,11.4177341 L33.6125799,11.4738392 C35.3660658,12.6077724 36.7555178,14.0849671 37.7477487,15.7531212 L41.0487775,12.8713639 C39.8800798,11.1136034 38.3647476,9.54352326 36.5270322,8.26055227 L39.0701915,5.59301411 C48.2609492,13.4772034 50.3136571,27.9109731 42.0304288,35.7112031 L45.7587084,39.4498369 C46.7488884,38.2778175 47.6514536,37.0015253 48.4442845,35.6244954 C55.5960394,23.2028725 51.345488,7.30206164 38.9582924,0.130426397 C38.9332922,0.115954161 38.9070224,0.104001957 38.8820058,0.0896227537 Z M26.476467,9.33674835 C26.7641491,9.33909864 27.0481203,9.35147847 27.3360629,9.37245154 C28.0026066,9.42100135 28.6704525,9.51810423 29.3298835,9.66827795 L25.8762814,13.1314872 L22.6210376,9.86719571 C23.8682354,9.50497361 25.1695354,9.32607412 26.476467,9.33674835 Z" id="path1945" stroke="#173980" stroke-width="0.5" fill="#FABC01" fill-rule="nonzero"></path>
                    </g>
                </g>
            </g>
        </g>
    </g>
</svg>