<svg width="353px" height="86px" viewBox="0 0 353 86" version="1.1" xmlns="http://www.w3.org/2000/svg" xmlns:xlink="http://www.w3.org/1999/xlink">
    <desc>Created by PabloAsekas</desc>
    <defs></defs>
    <g id="macsfera-logo" stroke="none" stroke-width="1" fill="none" fill-rule="evenodd">
        <g id="Capa_1">
            <path d="M48.483,56.703 C48.483,49.431 52.65,43.132 58.727,40.064 C53.141,31.015 43.134,24.984 31.718,24.984 C14.201,24.984 0,39.185 0,56.703 C0,69.76 7.89,80.974 19.162,85.838 C22.474,82.815 26.881,80.971 31.719,80.971 C36.617,80.971 41.074,82.78 44.399,85.784 C50.349,83.185 55.347,78.816 58.728,73.342 C52.651,70.273 48.483,63.975 48.483,56.703 L48.483,56.703 Z" id="Shape" fill="#C14C4C"></path>
            <path d="M31.723,18.973 C31.723,19.18 31.727,19.386 31.733,19.591 C41.944,19.497 50.193,10.834 50.193,0.602 C50.193,0.517 50.192,0.431 50.191,0.346 C39.978,0.432 31.723,8.738 31.723,18.973 L31.723,18.973 Z" id="Shape" fill="#C14C4C"></path>
            <g id="Group" transform="translate(64.000000, 25.000000)" fill="#545454">
                <path d="M55.524,59.42 L47.348,59.42 L46.107,35.914 C45.742,28.322 45.304,19.709 45.378,12.774 L45.159,12.774 C43.48,19.343 41.29,26.498 38.954,33.578 L30.632,58.909 L24.281,58.909 L16.616,34.09 C14.353,26.79 12.383,19.49 10.995,12.775 L10.776,12.775 C10.63,19.71 10.192,28.543 9.755,36.353 L8.514,59.42 L0.63,59.42 L4.426,3.503 L14.938,3.503 L22.822,28.103 C24.866,34.965 26.545,41.169 27.932,47.302 L28.151,47.302 C29.538,41.316 31.29,34.965 33.48,28.031 L41.583,3.503 L52.167,3.503 L55.524,59.42 L55.524,59.42 Z" id="Shape"></path>
                <path d="M93.411,49.857 C93.411,53.288 93.484,56.792 93.995,59.419 L86.33,59.419 L85.746,54.747 L85.527,54.747 C83.264,57.886 79.322,60.222 74.285,60.222 C66.766,60.222 62.459,54.674 62.459,48.47 C62.459,38.469 71.146,33.505 84.942,33.505 C84.942,30.512 84.942,24.526 76.839,24.526 C73.262,24.526 69.612,25.621 67.057,27.299 L65.305,21.678 C68.152,19.853 72.897,18.321 78.299,18.321 C90.124,18.321 93.409,26.132 93.409,34.673 L93.409,49.857 L93.411,49.857 Z M85.162,39.199 C78.519,39.199 70.854,40.44 70.854,47.594 C70.854,52.047 73.628,54.018 76.767,54.018 C81.366,54.018 85.162,50.514 85.162,45.842 L85.162,39.199 L85.162,39.199 Z" id="Shape"></path>
                <path d="M131.152,58.179 C129.254,59.055 125.458,60.223 120.786,60.223 C109.18,60.223 101.588,52.266 101.588,39.711 C101.588,27.52 109.472,18.322 122.393,18.322 C126.262,18.322 129.62,19.271 131.372,20.146 L129.693,26.643 C128.233,25.914 125.897,25.038 122.465,25.038 C114.582,25.038 110.202,31.462 110.202,39.346 C110.202,48.178 115.385,53.434 122.393,53.434 C125.75,53.434 128.086,52.631 129.985,51.829 L131.152,58.179 L131.152,58.179 Z" id="Shape"></path>
                <path d="M163.783,9.562 C162.25,8.467 158.746,6.934 154.074,6.934 C145.606,6.934 142.613,12.263 142.613,16.57 C142.613,22.555 146.117,25.549 153.782,28.76 C162.761,32.483 167.506,36.863 167.506,45.038 C167.506,53.433 161.374,60.222 149.84,60.222 C145.023,60.222 139.548,58.689 136.774,56.646 L138.307,52.849 C141.373,54.966 145.68,56.426 150.205,56.426 C158.162,56.426 162.907,51.974 162.907,45.477 C162.907,39.417 159.841,35.768 152.176,32.703 C143.636,29.637 138.088,24.891 138.088,17.227 C138.088,9.051 144.804,3.139 154.366,3.139 C159.476,3.139 163.418,4.452 165.316,5.694 L163.783,9.562 L163.783,9.562 Z" id="Shape"></path>
                <path d="M178.019,17.738 C178.019,11.898 179.187,6.934 182.326,3.649 C184.807,1.167 188.093,0.218 191.231,0.218 C193.713,0.218 195.757,0.875 196.999,1.531 L195.831,5.035 C194.735,4.524 193.349,3.94 191.013,3.94 C184.078,3.94 182.545,10.437 182.545,17.664 L182.545,19.927 L192.765,19.927 L192.765,23.504 L182.545,23.504 L182.545,59.42 L178.02,59.42 L178.02,23.505 L172.399,23.505 L172.399,19.928 L178.02,19.928 L178.02,17.738 L178.019,17.738 Z" id="Shape"></path>
                <path d="M226.781,57.741 C225.029,58.689 221.014,60.222 214.517,60.222 C203.129,60.222 196.195,51.974 196.195,40.367 C196.195,27.447 203.495,18.979 213.715,18.979 C226.271,18.979 228.899,30.805 228.971,36.937 C228.971,38.032 228.899,38.689 228.825,39.565 L200.648,39.565 C200.648,51.829 207.363,56.574 215.101,56.574 C220.503,56.574 223.423,55.479 225.686,54.384 L226.781,57.741 L226.781,57.741 Z M224.372,36.061 C224.445,30.44 222.109,22.629 213.276,22.629 C205.1,22.629 201.523,30.148 200.867,36.061 L224.372,36.061 L224.372,36.061 Z" id="Shape"></path>
                <path d="M255.396,23.505 C254.812,23.359 254.228,23.359 253.425,23.359 C246.856,23.359 243.06,30.439 243.06,37.593 L243.06,59.42 L238.534,59.42 L238.534,31.607 C238.534,27.666 238.461,23.796 238.242,19.855 L242.33,19.855 L242.476,27.738 L242.768,27.738 C244.447,22.847 248.535,18.979 253.717,18.979 C254.301,18.979 254.812,19.125 255.396,19.198 L255.396,23.505 L255.396,23.505 Z" id="Shape"></path>
                <path d="M287.662,50.003 C287.662,53.143 287.735,56.5 288.174,59.42 L284.013,59.42 L283.502,53.945 L283.282,53.945 C281.385,57.084 277.078,60.296 271.092,60.296 C263.354,60.296 259.559,54.748 259.559,49.346 C259.559,40.075 267.662,34.746 283.137,34.893 C283.137,31.024 283.137,22.629 273.428,22.629 C270.071,22.629 266.493,23.578 263.719,25.549 L262.406,22.337 C265.837,20.074 270.143,18.979 274.012,18.979 C285.181,18.979 287.662,27.154 287.662,34.601 L287.662,50.003 L287.662,50.003 Z M283.209,38.47 C274.961,38.47 264.303,39.491 264.303,48.69 C264.303,54.165 267.88,56.647 271.823,56.647 C280.29,56.647 283.21,49.566 283.21,46.646 L283.21,38.47 L283.209,38.47 Z" id="Shape"></path>
            </g>
        </g>
    </g>
</svg>