<?xml version="1.0" encoding="utf-8"?>
<!-- Generator: Adobe Illustrator 16.0.0, SVG Export Plug-In . SVG Version: 6.00 Build 0)  -->
<!DOCTYPE svg PUBLIC "-//W3C//DTD SVG 1.1//EN" "http://www.w3.org/Graphics/SVG/1.1/DTD/svg11.dtd">
<svg version="1.1" id="Capa_1" xmlns="http://www.w3.org/2000/svg" xmlns:xlink="http://www.w3.org/1999/xlink" x="0px" y="0px"
	 width="70px" height="70px" viewBox="0 0 70 70" enable-background="new 0 0 70 70" xml:space="preserve">
<path d="M48.457,45.168c0-5.773,3.309-10.773,8.133-13.208c-4.437-7.185-12.38-11.973-21.442-11.973
	c-13.908,0-25.183,11.274-25.183,25.182c0,10.365,6.264,19.27,15.213,23.131c2.629-2.398,6.128-3.863,9.969-3.863
	c3.889,0,7.428,1.436,10.066,3.82c4.725-2.061,8.692-5.531,11.376-9.877C51.766,55.943,48.457,50.941,48.457,45.168z"/>
<path d="M35.151,15.214c0,0.165,0.002,0.327,0.008,0.491c8.105-0.075,17.75-5.921,17.75-14.044c0-0.068,0-0.135-0.001-0.203
	C44.798,1.525,35.151,7.088,35.151,15.214z"/>
</svg>
