<?xml version="1.0" encoding="utf-8"?>
<!-- Generator: Adobe Illustrator 16.0.0, SVG Export Plug-In . SVG Version: 6.00 Build 0)  -->
<!DOCTYPE svg PUBLIC "-//W3C//DTD SVG 1.1//EN" "http://www.w3.org/Graphics/SVG/1.1/DTD/svg11.dtd">
<svg version="1.1" id="Capa_1" xmlns="http://www.w3.org/2000/svg" xmlns:xlink="http://www.w3.org/1999/xlink" x="0px" y="0px"
	 width="65px" height="55px" viewBox="-461 229 65 55" enable-background="new -461 229 65 55" xml:space="preserve">
<g>
	<g>
		<path fill="#FFFFFF" d="M-438.5,254h-8.75c-1.042,0-1.928-0.364-2.657-1.094c-0.729-0.729-1.094-1.615-1.094-2.657V249
			c0-2.76,0.977-5.117,2.93-7.07c1.953-1.953,4.31-2.929,7.07-2.929h2.5c0.677,0,1.263-0.248,1.757-0.742
			c0.495-0.495,0.742-1.081,0.742-1.758v-5c0-0.677-0.248-1.263-0.742-1.758c-0.495-0.494-1.081-0.742-1.757-0.742h-2.5
			c-2.708,0-5.292,0.527-7.754,1.582c-2.461,1.055-4.589,2.481-6.387,4.278c-1.797,1.796-3.223,3.925-4.277,6.386
			c-1.055,2.461-1.582,5.046-1.582,7.754v27.499c0,2.085,0.729,3.854,2.187,5.313c1.458,1.458,3.23,2.188,5.313,2.188h15.001
			c2.083,0,3.854-0.729,5.312-2.188c1.458-1.459,2.188-3.229,2.188-5.313V261.5c0-2.084-0.729-3.854-2.188-5.312
			C-434.646,254.729-436.417,254-438.5,254z"/>
		<path fill="#FFFFFF" d="M-398.187,256.188c-1.458-1.458-3.229-2.188-5.312-2.188h-8.75c-1.041,0-1.928-0.364-2.655-1.094
			c-0.729-0.729-1.094-1.615-1.094-2.657V249c0-2.76,0.977-5.117,2.929-7.07c1.953-1.953,4.31-2.929,7.071-2.929h2.499
			c0.678,0,1.264-0.248,1.758-0.742c0.494-0.495,0.743-1.081,0.743-1.758v-5c0-0.677-0.248-1.263-0.743-1.758
			c-0.494-0.494-1.08-0.742-1.758-0.742h-2.499c-2.71,0-5.294,0.527-7.756,1.582c-2.46,1.055-4.588,2.481-6.386,4.278
			c-1.797,1.796-3.223,3.925-4.277,6.386c-1.055,2.461-1.583,5.046-1.583,7.754v27.499c0,2.085,0.729,3.854,2.188,5.313
			c1.459,1.458,3.229,2.188,5.312,2.188h15c2.084,0,3.854-0.729,5.312-2.188c1.459-1.459,2.188-3.229,2.188-5.313V261.5
			C-396,259.416-396.729,257.646-398.187,256.188z"/>
	</g>
</g>
</svg>
